<?xml version="1.0" standalone="no"?>
<!DOCTYPE svg PUBLIC "-//W3C//DTD SVG 20010904//EN"
 "http://www.w3.org/TR/2001/REC-SVG-20010904/DTD/svg10.dtd">
<svg version="1.0" xmlns="http://www.w3.org/2000/svg"
 width="197.000000pt" height="200.000000pt" viewBox="0 0 197.000000 200.000000"
 preserveAspectRatio="xMidYMid meet">

<g transform="translate(0.000000,200.000000) scale(0.100000,-0.100000)"
fill="#000000" stroke="none">
<path d="M242 1737 l-242 -242 0 -500 0 -500 243 -243 242 -242 495 0 495 0
248 248 247 247 0 495 0 495 -243 243 -242 242 -500 0 -500 0 -243 -243z
m1471 -15 l237 -237 0 -486 0 -485 -242 -242 -243 -242 -485 0 -485 0 -238
238 -237 237 0 490 0 490 237 237 238 238 490 0 490 0 238 -238z"/>
<path d="M980 1901 c-62 -4 -81 -9 -69 -16 11 -7 18 -32 23 -77 6 -63 5 -68
-13 -68 -11 0 -23 -4 -26 -10 -4 -6 16 -10 52 -10 32 0 65 -5 73 -10 11 -8 7
-9 -14 -4 -22 5 -27 4 -21 -6 6 -9 3 -10 -11 -2 -28 15 -90 9 -86 -9 3 -11 1
-12 -9 -1 -15 14 -49 16 -49 2 0 -5 -7 -7 -15 -3 -12 4 -9 9 12 20 40 20 63
51 63 85 0 70 -44 94 -141 79 -35 -6 -68 -11 -74 -11 -5 0 0 -7 11 -15 12 -7
31 -42 43 -76 21 -55 21 -63 8 -77 -14 -13 -17 -12 -30 19 l-14 34 -8 -27 c-9
-35 -61 -56 -68 -28 -5 21 14 33 38 24 21 -8 19 2 -7 36 -21 29 -22 29 -36 9
-11 -16 -16 -18 -23 -8 -10 17 18 38 50 39 23 0 24 1 6 20 -10 11 -21 20 -25
20 -4 0 -43 -21 -86 -47 -54 -34 -72 -49 -58 -51 10 -2 36 -26 56 -54 34 -46
36 -53 23 -68 -27 -29 -16 -31 35 -5 55 28 60 29 60 15 0 -5 -7 -10 -15 -10
-20 0 -76 -35 -68 -43 3 -4 -1 -7 -11 -7 -9 0 -19 -7 -22 -15 -4 -8 -11 -15
-16 -15 -5 0 -23 -13 -40 -30 -16 -16 -26 -30 -22 -30 5 0 -2 -7 -15 -16 -13
-10 -19 -19 -13 -23 6 -3 0 -11 -14 -18 -36 -17 -29 0 24 57 51 56 82 105 82
132 0 9 -12 30 -26 47 -39 46 -76 42 -153 -16 -53 -41 -59 -48 -40 -51 24 -4
125 -80 123 -93 -3 -23 -5 -27 -20 -33 -19 -7 -124 67 -124 87 0 7 -14 -4 -30
-23 -29 -34 -37 -52 -22 -48 7 3 92 -29 92 -35 0 -1 -28 0 -63 4 -34 3 -63 5
-63 5 -1 -1 -11 -23 -23 -50 -18 -42 -19 -47 -4 -42 10 4 37 -7 71 -30 64 -42
61 -46 -42 -68 -59 -12 -66 -12 -66 2 0 31 -18 -3 -33 -61 -11 -42 -12 -57 -4
-54 17 6 129 -51 149 -76 17 -21 18 -21 18 -2 0 11 3 36 6 56 5 31 3 37 -15
42 -22 5 -28 31 -11 42 6 4 24 -5 40 -18 22 -19 26 -26 15 -31 -15 -5 -21 -36
-7 -36 16 0 35 19 37 37 3 21 13 51 26 76 5 10 7 22 4 27 -3 4 0 10 5 12 6 2
12 11 13 20 2 8 15 32 30 52 16 20 24 36 20 36 -4 0 0 5 10 11 9 5 17 14 17
19 0 13 108 120 121 120 5 0 12 7 15 15 4 8 15 15 25 15 10 0 19 4 19 9 0 5 9
13 20 16 11 4 17 11 14 17 -5 7 -1 9 9 5 9 -3 22 -1 29 6 7 7 19 12 26 13 28
2 33 4 28 13 -3 4 6 6 21 3 19 -4 24 -1 21 9 -5 15 -58 26 -58 12 0 -5 -9 -9
-19 -9 -29 0 -15 14 25 25 30 8 38 7 55 -10 24 -24 54 -26 45 -3 -5 14 -4 15
8 5 9 -8 26 -9 52 -3 22 5 60 7 87 6 31 -2 45 1 41 8 -4 5 5 3 18 -6 14 -9 27
-13 30 -10 4 3 16 1 27 -6 16 -8 21 -8 21 1 0 7 8 5 19 -5 11 -10 24 -15 30
-12 5 4 13 1 16 -5 4 -5 13 -8 20 -5 8 3 19 -2 26 -10 7 -8 18 -13 25 -10 7 3
15 -2 18 -11 4 -8 13 -13 20 -10 8 3 17 -1 20 -9 3 -8 10 -14 16 -14 12 0 32
-15 58 -42 9 -10 20 -18 25 -18 9 0 54 -47 90 -93 12 -16 27 -34 32 -40 6 -7
19 -29 28 -49 10 -21 22 -38 28 -38 6 0 8 -4 5 -9 -8 -12 4 -42 14 -36 4 2 5
-7 2 -22 -4 -20 -1 -25 9 -21 11 4 14 -6 15 -40 1 -26 7 -48 13 -50 8 -3 8 -9
0 -24 -15 -28 -1 -37 19 -13 42 51 106 76 76 29 -9 -14 -23 -23 -30 -20 -11 4
-14 -7 -14 -44 0 -28 4 -50 8 -50 4 0 28 20 52 45 24 25 49 45 56 45 6 0 23
-9 38 -21 l26 -20 0 23 c0 35 -11 68 -21 62 -5 -3 -18 0 -30 7 -20 10 -21 12
-5 21 11 6 22 6 32 -2 18 -15 19 -2 3 53 -9 33 -12 36 -22 24 -13 -17 -123
-27 -144 -14 -10 6 -13 -4 -13 -42 0 -28 -4 -51 -9 -51 -4 0 -6 12 -3 28 5 24
3 25 -11 14 -14 -12 -15 -10 -4 18 9 24 9 33 -1 39 -7 4 -12 12 -11 17 4 22
-2 35 -13 28 -7 -4 -8 -3 -4 5 5 8 15 6 33 -9 63 -49 153 -5 153 74 0 30 -7
45 -34 72 -38 38 -70 43 -116 19 -30 -15 -55 -70 -45 -97 4 -9 1 -19 -6 -24
-9 -5 -10 -2 -6 9 3 9 0 23 -8 31 -8 8 -15 21 -15 30 0 20 -17 30 -23 14 -3
-7 -6 -1 -6 14 -1 30 -16 45 -25 26 -3 -7 -4 1 0 17 3 17 13 41 22 55 l17 25
3 -29 c2 -16 -2 -32 -8 -36 -9 -5 -4 -19 15 -49 15 -22 29 -41 30 -41 2 0 11
32 20 71 l18 71 38 -5 c22 -3 39 -3 39 0 0 3 -9 18 -20 33 -18 25 -25 28 -55
23 -30 -5 -34 -3 -29 11 3 9 16 16 27 16 19 0 17 4 -13 35 -31 32 -35 34 -41
17 -8 -20 -108 -97 -116 -89 -2 3 3 19 11 36 21 40 21 41 -19 34 -23 -4 -35
-2 -35 6 0 24 41 91 55 91 27 0 16 15 -27 38 -46 24 -69 29 -51 11 17 -17 -64
-124 -82 -109 -9 8 -10 23 -1 68 11 52 14 57 41 60 27 3 25 6 -34 39 -65 36
-81 38 -61 6 10 -16 7 -29 -19 -80 -16 -34 -36 -63 -43 -66 -10 -4 -10 -8 2
-16 8 -6 10 -11 4 -11 -5 0 -16 6 -22 12 -10 10 -15 10 -21 0 -6 -11 -10 -10
-15 3 -4 11 -13 15 -26 12 -11 -3 -23 -1 -26 5 -3 5 -15 8 -25 5 -10 -3 -22
-1 -25 4 -3 5 4 9 15 9 16 0 21 6 21 24 0 13 3 33 7 43 6 16 5 16 -16 -2 -14
-12 -33 -19 -49 -16 -33 4 -34 4 -26 24 4 12 11 14 30 7 23 -9 24 -8 24 31 0
32 3 40 15 35 9 -3 15 0 15 8 0 24 -12 46 -24 44 -6 -1 -49 -4 -96 -7z m74
-52 c-7 -11 -34 -12 -34 -1 0 14 11 21 26 15 8 -3 11 -9 8 -14z m-258 -64 c-9
-34 -11 -31 -20 20 -7 38 -6 39 10 23 12 -11 15 -24 10 -43z m574 -175 c74
-44 110 -74 134 -112 11 -17 14 -28 7 -33 -6 -3 -11 1 -11 11 0 20 -48 67 -60
59 -5 -3 -12 4 -15 16 -4 12 -12 18 -20 15 -8 -3 -17 3 -20 15 -7 21 -25 26
-25 7 -1 -7 -7 -2 -15 12 -7 14 -17 25 -22 25 -4 1 -18 6 -30 13 -16 9 -22 9
-25 0 -3 -7 -7 -5 -11 6 -6 16 -3 17 20 12 16 -4 57 -25 93 -46z m-956 -6 c9
-8 16 -22 16 -31 0 -13 -3 -13 -16 -3 -21 18 -37 50 -25 50 5 0 17 -7 25 -16z
m-19 -210 c13 -5 8 -10 -19 -19 -29 -10 -45 -10 -79 0 l-42 13 40 4 c70 8 83
8 100 2z m1385 -58 c0 -14 -5 -28 -10 -31 -13 -8 -24 20 -16 40 9 24 26 17 26
-9z m-1410 10 c0 -2 -8 -10 -17 -17 -16 -13 -17 -12 -4 4 13 16 21 21 21 13z
m-39 -60 c-7 -8 -10 -19 -7 -24 3 -6 -1 -15 -10 -22 -8 -7 -13 -19 -10 -26 3
-7 1 -16 -4 -19 -20 -13 -10 65 12 90 22 26 40 27 19 1z m-141 -96 c0 -5 -7
-7 -15 -4 -8 4 -15 8 -15 10 0 2 7 4 15 4 8 0 15 -4 15 -10z"/>
<path d="M1319 1889 c-11 -6 -11 -13 -3 -26 13 -21 52 -29 67 -14 22 22 -36
58 -64 40z"/>
<path d="M952 1612 c2 -10 -3 -26 -11 -35 -12 -15 -11 -17 7 -17 12 0 22 -9
26 -22 l7 -23 11 23 c6 12 20 22 31 22 17 0 18 2 6 17 -8 9 -12 25 -11 37 4
18 2 18 -13 6 -13 -11 -20 -11 -37 -1 -17 11 -19 10 -16 -7z"/>
<path d="M756 1574 c-4 -10 -13 -13 -26 -9 -20 6 -28 -9 -10 -20 6 -3 7 -17 4
-30 -5 -20 -3 -23 14 -18 11 2 23 0 26 -6 12 -18 28 -12 22 7 -5 13 1 22 16
30 l23 11 -22 7 c-13 3 -23 14 -23 25 0 23 -16 25 -24 3z"/>
<path d="M1190 1576 c0 -10 -9 -20 -20 -23 -24 -6 -26 -19 -5 -27 8 -3 15 -15
15 -26 0 -24 15 -27 24 -5 4 13 10 14 26 5 19 -10 20 -9 14 15 -4 15 -1 32 7
42 12 15 12 16 -5 10 -12 -5 -26 -1 -37 9 -18 16 -19 16 -19 0z"/>
<path d="M880 1466 c0 -8 4 -17 9 -20 5 -4 7 3 4 14 -6 23 -13 26 -13 6z"/>
<path d="M551 1448 c-6 -16 -18 -28 -28 -28 -17 -1 -17 -1 0 -11 9 -5 17 -19
17 -29 0 -21 15 -27 25 -10 12 19 23 10 39 -30 9 -22 21 -40 27 -40 18 0 122
54 111 58 -6 2 -33 -8 -61 -22 l-50 -26 -16 29 c-17 34 -20 67 -5 76 17 11 11
27 -8 21 -13 -5 -22 1 -29 16 l-11 23 -11 -27z"/>
<path d="M1392 1453 c-9 -15 -18 -20 -34 -16 -22 6 -22 5 -6 -13 13 -15 14
-23 6 -38 -9 -17 -8 -18 15 -12 14 3 29 2 32 -4 11 -17 23 -11 18 9 -3 14 2
21 18 26 l24 8 -23 8 c-12 5 -26 19 -31 31 l-8 22 -11 -21z"/>
<path d="M928 1453 c6 -2 18 -2 25 0 6 3 1 5 -13 5 -14 0 -19 -2 -12 -5z"/>
<path d="M716 1427 c3 -10 9 -15 12 -12 3 3 0 11 -7 18 -10 9 -11 8 -5 -6z"/>
<path d="M940 1423 c0 -4 16 -18 35 -31 45 -29 45 -22 0 12 -19 15 -35 23 -35
19z"/>
<path d="M1075 1400 c-3 -5 -1 -10 4 -10 6 0 11 5 11 10 0 6 -2 10 -4 10 -3 0
-8 -4 -11 -10z"/>
<path d="M895 1370 c-3 -6 -4 -18 0 -29 7 -24 55 -17 55 9 0 25 -42 41 -55 20z"/>
<path d="M1240 1329 c0 -12 55 -39 79 -39 11 0 23 5 27 12 5 8 2 9 -10 5 -10
-4 -35 2 -57 12 -21 11 -39 15 -39 10z"/>
<path d="M775 1320 c-7 -12 2 -30 15 -30 5 0 8 9 7 20 -1 21 -12 26 -22 10z"/>
<path d="M833 1324 c-7 -3 -9 -12 -6 -21 4 -10 2 -14 -4 -10 -7 5 -9 0 -6 -13
7 -26 9 -26 27 12 21 41 20 44 -11 32z"/>
<path d="M708 1295 c-6 -29 1 -40 30 -47 19 -5 22 -2 22 21 0 20 -7 31 -24 39
-21 9 -24 8 -28 -13z"/>
<path d="M1050 1275 c0 -8 7 -15 15 -15 8 0 15 7 15 15 0 8 -7 15 -15 15 -8 0
-15 -7 -15 -15z"/>
<path d="M1230 1286 c0 -2 14 -14 30 -26 17 -12 30 -19 30 -16 0 2 -13 14 -30
26 -16 12 -30 19 -30 16z"/>
<path d="M1356 1275 c-4 -12 -1 -16 11 -13 18 3 21 20 5 26 -5 1 -12 -4 -16
-13z"/>
<path d="M415 1250 c4 -13 1 -22 -9 -26 -22 -8 -20 -24 3 -24 11 0 21 -9 25
-22 l7 -23 9 23 c7 17 15 22 30 17 23 -7 27 10 4 19 -10 4 -13 13 -9 27 6 18
4 20 -13 15 -11 -4 -23 -2 -27 4 -11 18 -27 11 -20 -10z"/>
<path d="M770 1257 c0 -23 21 -37 40 -27 14 8 25 -2 59 -50 24 -33 41 -68 39
-78 -5 -28 -49 -25 -111 8 -31 16 -60 30 -63 30 -13 0 20 -32 48 -46 15 -8 28
-21 28 -29 0 -13 -91 -84 -98 -76 -2 2 -18 -4 -35 -12 -18 -9 -53 -21 -79 -28
-27 -6 -48 -15 -48 -19 0 -5 28 0 62 10 58 18 65 18 122 3 34 -9 65 -20 70
-24 7 -7 -38 -41 -69 -53 -5 -2 -7 -6 -4 -10 4 -4 33 7 65 24 85 45 134 30
134 -42 0 -81 -32 -264 -56 -317 -13 -29 -24 -55 -24 -57 0 -2 30 -4 66 -4 41
0 63 -4 59 -10 -3 -5 -15 -10 -26 -10 -22 0 -26 -15 -5 -23 9 -4 12 -15 8 -34
-5 -25 -3 -27 11 -15 9 8 25 11 38 7 18 -6 20 -4 14 14 -4 14 -1 23 9 27 22 9
20 24 -3 24 -11 0 -23 5 -26 10 -9 14 138 13 170 -2 15 -7 25 -20 25 -32 1
-20 2 -20 14 -3 7 9 23 17 36 17 18 0 20 3 10 15 -6 8 -9 23 -6 33 6 16 2 19
-19 14 -15 -2 -25 0 -25 7 0 21 -19 11 -22 -11 -3 -20 -8 -16 -36 27 -43 68
-63 134 -68 234 -3 74 -2 82 12 77 14 -6 15 -4 4 9 -11 13 -11 19 3 32 22 22
65 10 73 -22 4 -18 12 -24 27 -21 12 1 23 9 25 16 3 9 -2 11 -17 7 -13 -3 -21
0 -21 8 0 11 8 11 45 0 24 -8 47 -10 50 -5 7 11 1 14 -66 34 -76 21 -88 37
-52 66 23 18 36 21 73 16 l45 -5 -28 15 c-23 12 -26 18 -16 30 14 17 62 18 91
3 16 -9 19 -8 16 3 -2 7 -19 17 -37 23 -26 8 -31 13 -27 30 16 57 17 65 8 65
-5 0 -13 -15 -16 -34 -6 -31 -71 -105 -82 -93 -2 2 -1 18 2 36 5 23 10 29 17
22 6 -6 16 -11 23 -11 7 0 -2 15 -19 33 -19 20 -35 29 -39 23 -4 -6 -3 -15 2
-21 7 -8 -4 -12 -35 -14 -25 -1 -45 1 -45 4 0 3 16 37 36 76 19 39 32 74 28
78 -4 3 -8 1 -11 -4 -10 -28 -52 -100 -60 -102 -4 -2 -14 10 -20 27 -18 47
-35 37 -18 -11 13 -35 13 -45 0 -75 -16 -40 -23 -41 -58 -14 -26 21 -47 88
-47 152 0 25 3 29 12 20 7 -7 12 -24 13 -39 0 -20 6 -28 25 -33 22 -6 26 -4
28 16 1 15 -6 29 -18 36 -11 7 -20 20 -20 30 0 12 -8 16 -30 16 -28 -1 -30 -4
-30 -40 0 -50 -19 -50 -55 2 -16 23 -34 39 -41 36 -7 -3 -15 2 -18 10 -7 18
-36 19 -36 1z m148 -222 c16 -35 15 -60 -3 -75 -18 -15 -45 -6 -45 16 0 10 -5
14 -14 11 -8 -3 -16 -1 -18 5 -3 7 -12 9 -21 5 -26 -10 -9 -40 19 -34 16 3 24
0 24 -10 0 -15 -23 -14 -114 4 l-29 5 24 19 c106 83 157 99 177 54z m240 -27
c-5 -31 -51 -62 -82 -54 -20 5 -26 13 -26 34 0 40 19 60 60 64 38 3 53 -10 48
-44z"/>
<path d="M882 978 c6 -18 28 -21 28 -4 0 9 -7 16 -16 16 -9 0 -14 -5 -12 -12z"/>
<path d="M1480 1265 c0 -4 4 -15 10 -25 7 -13 6 -19 -5 -24 -21 -8 -19 -28 3
-24 9 2 22 -5 29 -17 13 -20 13 -20 19 3 4 13 14 22 27 22 19 0 19 1 2 20 -9
10 -15 26 -12 35 7 17 -4 20 -20 4 -8 -8 -17 -8 -32 0 -12 7 -21 9 -21 6z"/>
<path d="M660 1205 c0 -23 4 -26 28 -23 19 2 27 9 27 23 0 14 -8 21 -27 23
-24 3 -28 0 -28 -23z"/>
<path d="M1190 1203 c0 -13 61 -53 81 -53 8 1 -4 10 -26 22 -22 11 -43 26 -47
32 -6 8 -8 8 -8 -1z"/>
<path d="M1070 1165 c0 -8 7 -15 15 -15 8 0 15 7 15 15 0 8 -7 15 -15 15 -8 0
-15 -7 -15 -15z"/>
<path d="M1312 1168 c-19 -19 -14 -30 11 -26 12 2 22 9 22 17 0 19 -18 24 -33
9z"/>
<path d="M534 1159 c-10 -17 13 -36 27 -22 12 12 4 33 -11 33 -5 0 -12 -5 -16
-11z"/>
<path d="M656 1155 c-6 -17 17 -31 34 -20 8 5 8 11 -1 21 -15 18 -25 18 -33
-1z"/>
<path d="M585 1130 c-22 -14 -39 -18 -62 -14 -36 7 -40 -1 -18 -32 19 -28 69
-22 62 7 -3 11 -1 17 4 13 5 -3 9 -1 9 3 0 5 12 16 28 25 15 10 23 18 17 18
-5 0 -23 -9 -40 -20z"/>
<path d="M1217 1136 c-6 -15 11 -36 29 -36 13 0 13 17 1 38 -11 16 -24 15 -30
-2z"/>
<path d="M286 1104 c-17 -17 -21 -34 -8 -34 10 0 42 33 42 43 0 12 -18 7 -34
-9z"/>
<path d="M598 1103 c-17 -4 -26 -33 -10 -33 10 1 42 26 42 34 0 6 -5 6 -32 -1z"/>
<path d="M970 1102 c0 -12 46 -35 60 -30 6 2 -5 11 -24 21 -20 9 -36 13 -36 9z"/>
<path d="M1415 1099 c-10 -15 1 -23 20 -15 9 3 13 10 10 16 -8 13 -22 13 -30
-1z"/>
<path d="M285 1060 c-9 -10 -15 -26 -12 -34 4 -9 2 -18 -2 -21 -5 -2 -12 6
-15 20 -7 29 -39 49 -66 40 -10 -3 -26 -26 -36 -50 -9 -25 -21 -45 -25 -45
-12 0 -11 17 2 42 10 19 9 20 -12 15 -13 -4 -28 -7 -32 -7 -5 0 -5 -5 -2 -10
4 -6 1 -26 -5 -44 -14 -44 -4 -83 26 -103 23 -14 26 -14 45 3 11 10 27 33 34
51 20 47 39 43 32 -7 -3 -25 -1 -41 7 -43 6 -3 -12 -28 -41 -58 -44 -45 -54
-51 -67 -40 -20 16 -20 19 3 -54 13 -39 24 -59 33 -56 7 2 46 6 86 9 59 4 72
2 72 -10 0 -22 -98 -98 -117 -91 -14 6 -14 3 1 -23 40 -67 42 -68 67 -45 24
22 40 23 47 3 2 -7 -10 -20 -26 -29 l-30 -17 21 -28 c22 -29 39 -37 35 -15 -2
6 29 28 69 48 l71 37 -18 30 c-16 26 -17 31 -4 36 8 3 13 2 9 -3 -9 -15 7 -43
21 -37 8 3 14 -4 16 -17 2 -12 9 -21 15 -20 7 2 15 -7 18 -18 4 -11 13 -18 20
-15 7 2 15 -4 18 -16 4 -14 11 -19 21 -15 10 4 16 1 16 -7 0 -17 30 -30 31
-13 0 7 5 1 10 -12 5 -14 15 -21 23 -18 8 3 17 -1 20 -9 3 -8 14 -14 25 -14
11 0 23 -5 26 -11 4 -5 12 -8 18 -6 7 2 20 -2 30 -11 9 -8 20 -13 23 -9 11 10
-17 47 -36 47 -10 0 -22 5 -25 11 -4 6 -13 8 -20 5 -7 -2 -16 2 -19 11 -4 8
-12 13 -19 10 -8 -3 -19 4 -26 14 -6 11 -16 17 -21 14 -6 -4 -13 1 -16 9 -3 9
-13 16 -20 16 -8 0 -17 7 -20 15 -4 8 -10 15 -16 15 -5 0 -25 17 -43 38 -19
20 -35 33 -36 27 -1 -5 -4 1 -8 15 -4 14 -13 24 -19 22 -7 -1 -12 7 -12 18 0
11 -4 20 -10 20 -5 0 -10 7 -10 15 0 9 -7 18 -15 21 -8 4 -15 17 -15 31 0 13
-4 21 -10 18 -6 -4 -10 5 -10 19 0 14 -4 26 -10 26 -5 0 -7 7 -4 15 3 8 0 17
-8 20 -10 4 -13 15 -10 31 2 13 0 24 -4 24 -10 0 -12 26 -15 153 -1 48 -2 87
-4 87 -1 0 -10 -9 -20 -20z m-2 -95 c-3 -9 -8 -14 -10 -11 -3 3 -2 9 2 15 9
16 15 13 8 -4z m-3 -71 c0 -16 4 -23 11 -18 8 4 8 0 0 -15 -13 -23 -6 -45 10
-36 5 3 6 -1 3 -10 -8 -19 -22 -9 -47 34 -11 18 -14 31 -7 31 6 0 10 6 9 13
-3 25 1 38 11 32 6 -3 10 -17 10 -31z m15 -112 c11 -4 20 -16 20 -27 0 -11 5
-19 12 -18 7 2 10 -4 6 -13 -6 -18 27 -85 39 -78 4 3 8 -7 8 -21 0 -20 4 -26
14 -22 10 4 13 1 9 -9 -3 -7 -9 -14 -13 -14 -13 0 -57 73 -75 127 -16 45 -22
51 -44 50 -17 -1 -26 4 -29 16 -4 18 15 21 53 9z m-90 -42 c3 -6 -4 -10 -17
-10 -18 0 -20 2 -8 10 19 12 18 12 25 0z m185 -178 c0 -4 -9 -13 -20 -19 -20
-13 -37 -2 -25 17 7 12 45 14 45 2z"/>
<path d="M1367 1060 c3 -11 10 -23 15 -26 14 -9 61 -13 81 -8 23 7 22 23 -1
17 -11 -2 -34 5 -53 16 -42 26 -48 26 -42 1z"/>
<path d="M1444 1064 c-19 -15 -19 -15 1 -6 11 5 27 12 35 15 13 5 13 6 -1 6
-8 1 -24 -6 -35 -15z"/>
<path d="M1672 1058 c-7 -7 -12 -21 -12 -32 0 -18 1 -19 20 -1 20 18 27 45 12
45 -4 0 -13 -5 -20 -12z"/>
<path d="M402 1038 c-7 -10 -21 -14 -34 -11 -17 5 -19 3 -10 -13 7 -13 7 -25
0 -38 -8 -14 -7 -17 10 -14 10 2 26 -3 35 -11 15 -12 17 -11 17 6 0 11 10 24
23 30 l22 10 -22 7 c-12 4 -23 16 -25 28 -3 19 -4 20 -16 6z"/>
<path d="M1550 1042 c0 -6 -10 -20 -22 -32 -12 -11 -16 -20 -10 -20 7 0 17
-12 23 -27 9 -25 11 -26 20 -10 7 12 17 15 35 11 24 -6 25 -5 13 14 -10 17
-10 23 0 36 12 14 10 16 -11 16 -13 0 -29 5 -36 12 -9 9 -12 9 -12 0z"/>
<path d="M522 1023 c2 -10 10 -18 18 -18 8 0 16 8 18 18 2 12 -3 17 -18 17
-15 0 -20 -5 -18 -17z"/>
<path d="M1362 1007 c-14 -16 -6 -27 20 -27 13 0 18 6 16 17 -4 22 -22 27 -36
10z"/>
<path d="M1672 1008 c-7 -7 -12 -21 -12 -32 0 -18 1 -19 20 -1 20 18 27 45 12
45 -4 0 -13 -5 -20 -12z"/>
<path d="M658 993 c7 -3 16 -2 19 1 4 3 -2 6 -13 5 -11 0 -14 -3 -6 -6z"/>
<path d="M1727 973 c-23 -24 -27 -25 -27 -9 0 19 0 19 -21 0 -11 -10 -18 -26
-16 -36 3 -10 1 -21 -5 -24 -5 -3 -8 -15 -5 -25 3 -10 2 -21 -3 -24 -4 -2 -11
-19 -15 -37 -4 -18 -9 -35 -10 -38 -1 -3 -5 -14 -9 -25 -5 -11 -15 -36 -24
-55 -9 -19 -17 -39 -17 -45 0 -5 -9 -18 -20 -27 -15 -13 -17 -17 -5 -18 9 0 5
-6 -10 -13 -14 -8 -24 -19 -22 -25 1 -7 -4 -12 -12 -12 -7 0 -24 -16 -37 -35
-13 -19 -30 -35 -36 -35 -7 0 -13 -7 -13 -15 0 -8 -9 -15 -20 -15 -11 0 -20
-7 -20 -16 0 -8 -4 -13 -9 -9 -5 3 -16 -2 -24 -10 -9 -8 -23 -15 -31 -15 -9 0
-16 -4 -16 -9 0 -5 -10 -11 -22 -13 -13 -2 -22 -9 -21 -15 2 -7 -4 -10 -12 -7
-9 4 -21 2 -28 -4 -6 -5 -31 -13 -54 -17 -24 -4 -43 -10 -43 -13 0 -4 -19 -6
-42 -6 -52 2 -63 -3 -47 -22 14 -17 49 -19 49 -3 0 8 5 8 15 -1 12 -10 18 -10
30 0 8 7 21 10 30 7 8 -4 17 -2 20 3 4 6 17 10 31 10 13 0 24 5 24 10 0 6 12
10 26 10 14 0 23 4 19 10 -4 6 5 10 19 10 14 0 26 5 26 10 0 6 9 10 21 10 15
0 19 4 15 16 -4 11 -2 15 8 11 8 -3 24 3 37 14 12 10 26 19 32 19 5 0 7 6 4
13 -3 8 3 14 15 14 28 2 35 12 18 23 -12 8 -10 10 8 10 12 0 25 7 28 15 4 9
15 20 26 26 18 10 19 8 13 -19 -4 -20 -1 -41 9 -60 16 -32 34 -42 72 -42 18 0
24 -5 24 -22 1 -20 4 -18 20 12 19 34 26 59 14 47 -13 -13 -45 14 -42 36 5 35
40 28 60 -12 l17 -33 21 42 c18 35 19 42 6 37 -12 -5 -16 0 -16 17 0 25 -33
60 -68 71 -13 4 -34 0 -52 -8 -17 -9 -32 -11 -36 -6 -3 5 2 12 10 15 9 3 16
14 16 24 0 10 7 21 16 24 9 3 14 13 11 20 -3 8 -1 16 4 18 6 2 11 10 13 18 2
8 6 23 11 33 4 10 5 20 2 24 -3 3 1 12 9 20 8 9 13 22 10 29 -3 7 -1 16 4 19
6 4 10 13 10 21 0 10 -5 12 -12 8 -8 -5 -7 -1 2 10 13 17 15 17 22 -9 16 -62
77 -92 128 -65 15 8 21 6 29 -7 8 -14 10 -10 11 23 0 41 -1 42 -32 40 -29 -1
-33 2 -33 24 0 34 36 39 64 9 l21 -23 -1 55 c0 32 -3 47 -8 36 -6 -16 -9 -16
-31 8 -33 35 -86 34 -123 -2z m-162 -403 c-3 -5 -12 -10 -18 -10 -7 0 -6 4 3
10 19 12 23 12 15 0z"/>
<path d="M718 924 c-12 -11 4 -34 24 -34 13 0 18 6 16 17 -3 18 -29 29 -40 17z"/>
<path d="M1330 905 c-14 -8 -20 -14 -14 -15 5 0 19 7 30 15 24 18 16 19 -16 0z"/>
<path d="M546 903 c-12 -12 -5 -23 14 -23 11 0 20 4 20 9 0 11 -26 22 -34 14z"/>
<path d="M1346 883 c-11 -11 -6 -23 9 -23 8 0 15 4 15 9 0 13 -16 22 -24 14z"/>
<path d="M635 850 c-7 -12 2 -30 15 -30 5 0 14 9 20 20 9 17 8 20 -9 20 -11 0
-23 -4 -26 -10z"/>
<path d="M1326 833 c-4 -5 -11 -8 -14 -9 -4 0 -18 -5 -31 -11 -17 -7 -21 -12
-12 -18 15 -9 58 12 65 31 6 16 3 18 -8 7z"/>
<path d="M427 810 c-3 -13 -14 -20 -29 -21 l-23 0 22 -11 c18 -9 21 -16 16
-37 -6 -23 -4 -24 9 -13 10 8 26 10 43 6 25 -6 27 -5 17 12 -8 14 -7 23 5 36
15 17 14 18 -6 18 -12 0 -24 7 -27 15 -8 21 -21 19 -27 -5z"/>
<path d="M1517 817 c-3 -9 -16 -17 -28 -17 -20 0 -21 -1 -6 -18 12 -13 13 -22
5 -36 -9 -15 -7 -17 11 -11 11 3 30 1 42 -5 19 -11 20 -10 14 10 -5 15 -1 26
12 35 15 12 16 14 2 15 -9 0 -23 10 -31 22 -13 19 -15 20 -21 5z"/>
<path d="M1666 744 c-10 -36 -26 -72 -34 -80 -19 -19 -16 -21 43 -29 41 -6 48
-5 38 6 -7 7 -13 24 -13 37 0 18 4 22 18 18 9 -3 34 -8 55 -12 22 -4 37 -12
37 -20 0 -26 17 -14 23 15 3 16 9 42 13 57 7 26 6 28 -9 16 -14 -12 -25 -9
-76 14 -34 15 -61 31 -61 35 0 5 -3 9 -8 9 -4 0 -16 -30 -26 -66z"/>
<path d="M540 620 c0 -12 -8 -29 -17 -36 -17 -12 -16 -13 4 -14 13 0 24 -8 29
-22 6 -20 8 -20 19 -5 7 9 20 17 30 17 14 0 15 3 6 14 -9 11 -10 20 -1 35 11
22 4 27 -20 11 -10 -6 -20 -4 -32 7 -17 15 -18 14 -18 -7z"/>
<path d="M1400 625 c-10 -12 -16 -13 -28 -3 -13 11 -15 10 -10 -10 4 -13 0
-28 -9 -37 -13 -13 -12 -15 10 -15 14 0 28 -7 32 -17 6 -16 8 -15 16 5 4 12
15 22 24 22 20 0 19 16 -1 24 -10 4 -14 14 -11 26 6 24 -5 26 -23 5z"/>
<path d="M764 499 c-3 -6 -15 -8 -26 -6 -17 5 -19 2 -14 -18 3 -13 2 -27 -4
-30 -16 -10 -12 -25 5 -18 9 3 25 -3 35 -12 19 -17 20 -17 20 3 0 12 8 23 21
27 l21 7 -22 15 c-12 8 -19 21 -16 29 6 16 -10 19 -20 3z"/>
<path d="M790 342 c0 -20 28 -45 43 -39 9 3 19 2 22 -3 4 -6 13 -10 21 -10 9
0 12 5 8 11 -3 6 5 3 20 -6 15 -10 29 -15 33 -11 11 11 -31 47 -49 43 -10 -3
-21 -1 -24 4 -3 6 -14 7 -24 4 -10 -3 -21 -1 -25 5 -7 12 -25 14 -25 2z"/>
<path d="M935 319 c-3 -3 5 -15 17 -25 15 -13 22 -15 25 -7 3 10 9 10 23 1 23
-15 37 -4 21 16 -12 15 -79 27 -86 15z"/>
<path d="M873 238 c-31 -15 -39 -45 -17 -69 10 -11 12 -19 6 -19 -20 0 -13
-29 8 -40 65 -35 123 67 70 120 -22 22 -35 24 -67 8z m37 -39 c0 -24 -4 -38
-10 -34 -17 10 -11 75 7 75 2 0 3 -18 3 -41z m0 -64 c0 -8 -4 -15 -10 -15 -5
0 -10 7 -10 15 0 8 5 15 10 15 6 0 10 -7 10 -15z"/>
<path d="M990 230 c-23 -23 -25 -44 -6 -62 11 -11 11 -14 -1 -24 -13 -9 -13
-12 2 -27 22 -23 47 -21 79 4 18 14 26 30 26 52 0 38 -7 50 -37 66 -30 15 -40
14 -63 -9z m50 -54 c0 -56 -13 -82 -23 -46 -3 11 -1 20 3 20 4 0 6 18 3 40 -4
26 -2 40 6 40 7 0 11 -21 11 -54z"/>
<path d="M758 233 c16 -6 17 -113 0 -113 -26 0 3 -12 34 -14 l33 -1 -3 67 -4
68 -36 -1 c-20 0 -31 -3 -24 -6z"/>
<path d="M1116 218 c-9 -34 -7 -50 4 -43 6 4 7 11 4 17 -4 6 2 6 15 -1 22 -12
30 -64 11 -76 -6 -4 -9 4 -7 17 1 17 -4 24 -20 26 -32 5 -31 -35 1 -49 57 -26
119 53 65 82 -20 10 -20 12 -6 21 29 16 19 28 -22 28 -32 0 -40 -4 -45 -22z"/>
</g>
</svg>
